<?xml version="1.0" encoding="UTF-8"?>
<svg xmlns="http://www.w3.org/2000/svg" viewBox="0 0 2000 340" width="165" height="28">
  <g transform="translate(8, 8) scale(0.316)">
    <rect width="1024" height="1024" rx="160" fill="#ffffff"/>
    <path fill="#000000"
          d="M648.077,530.65c0,46.2-18.34,81.95-55,107.25-25.3,17.239-51.7,25.851-79.2,25.851-10.27,0-25.119-3.301-44.55-9.9-10.27-3.661-18.149-5.5-23.649-5.5-9.9,0-19.989,3.67-30.25,11-2.2,1.461-3.851,2.2-4.95,2.2-2.569,0-4.039-1.101-4.4-3.3-.369-2.2-.55-8.801-.55-19.801v-322.85c0-9.53-1.719-15.761-5.156-18.7-3.438-2.931-10.948-4.4-22.533-4.4-9.771,0-14.66-1.28-14.66-3.85s2.234-3.85,6.694-3.85c41.653,0,77.919-4.581,108.797-13.75l.559,8.8v162.25c14.618-20.161,34.899-30.25,60.853-30.25,31.427,0,57.285,11.095,77.567,33.274,20.281,22.189,30.43,50.695,30.43,85.525ZM566.127,532.851c0-71.131-14.85-106.7-44.55-106.7-16.5,0-28.6,7.7-36.3,23.1-2.939,5.87-4.675,12.745-5.225,20.625-.551,7.89-.825,30.345-.825,67.375v33.551c0,34.469,2.286,57.294,6.875,68.475,4.58,11.189,13.836,16.775,27.774,16.775,19.062,0,32.536-9.351,40.426-28.051,7.88-18.699,11.824-50.41,11.824-95.149Z"/>
    <path fill="#000000"
          d="M692.003,642.041c0,7.235-2.336,13.186-7,17.851-4.671,4.665-10.621,7-17.851,7s-13.3-2.396-18.2-7.175c-4.899-4.78-7.35-10.676-7.35-17.676,0-7.229,2.45-13.3,7.35-18.199s10.965-7.351,18.2-7.351c6.765,0,12.601,2.45,17.5,7.351,4.9,4.899,7.351,10.97,7.351,18.199Z"/>
  </g>
  <text x="380" y="248" font-family="system-ui, -apple-system, BlinkMacSystemFont, 'Segoe UI', sans-serif" font-size="240" font-weight="600" fill="#ffffff">billing.io</text>
</svg>
